<svg width="60" height="60" viewBox="0 0 60 60" fill="none" xmlns="http://www.w3.org/2000/svg">
<circle cx="30" cy="30" r="30" transform="matrix(-1 0 0 1 60 0)" fill="#212121"/>
<circle cx="25" cy="25" r="25" transform="matrix(-1 0 0 1 55 5)" fill="#D9D9D9"/>
<path d="M16.9393 31.0607C16.3536 30.4749 16.3536 29.5251 16.9393 28.9393L26.4853 19.3934C27.0711 18.8076 28.0208 18.8076 28.6066 19.3934C29.1924 19.9792 29.1924 20.9289 28.6066 21.5147L20.1213 30L28.6066 38.4853C29.1924 39.0711 29.1924 40.0208 28.6066 40.6066C28.0208 41.1924 27.0711 41.1924 26.4853 40.6066L16.9393 31.0607ZM43 31.5H18V28.5H43V31.5Z" fill="#212121"/>
</svg>
